<svg width="20" height="17" viewBox="0 0 20 17" fill="none" xmlns="http://www.w3.org/2000/svg">
<path d="M1.594 0.984393C1.77505 0.963351 1.95841 0.992195 2.12426 1.0678C2.29011 1.14342 2.43214 1.26292 2.535 1.41339C4.011 3.57239 5.783 4.47039 7.75 4.67439C7.846 3.83339 8.073 3.00239 8.5 2.27039C9.126 1.19639 10.144 0.406392 11.598 0.114392C13.608 -0.289608 15.138 0.438393 16.025 1.32939L17.817 0.994393C18.0045 0.959256 18.1982 0.978496 18.3751 1.04984C18.5521 1.12119 18.7049 1.24166 18.8156 1.39704C18.9263 1.55242 18.9902 1.73623 18.9999 1.92677C19.0095 2.11731 18.9645 2.30663 18.87 2.47239L17.15 5.49439C17.307 9.85539 16.095 12.8994 13.511 14.9964C12.141 16.1084 10.179 16.7394 8.026 16.9344C5.856 17.1304 3.403 16.8934 0.964998 16.1814C0.75669 16.1206 0.573798 15.9938 0.443924 15.8199C0.314049 15.6461 0.244239 15.4347 0.245029 15.2178C0.245819 15.0008 0.317167 14.7899 0.448304 14.617C0.579442 14.4442 0.763253 14.3186 0.971998 14.2594C2.198 13.9104 3.132 13.6094 3.975 13.0824C2.776 12.4464 1.893 11.6144 1.268 10.6664C0.399998 9.34839 0.0779978 7.87839 0.0139978 6.55339C-0.0500022 5.22839 0.140998 4.00039 0.342998 3.11539C0.457998 2.61039 0.591998 2.10439 0.776998 1.62039C0.842254 1.44978 0.952995 1.30031 1.0972 1.18818C1.24141 1.07606 1.41257 1.00558 1.594 0.984393Z" fill="black"/>
</svg>
