<svg width="21" height="15" viewBox="0 0 21 15" fill="none" xmlns="http://www.w3.org/2000/svg">
<path fill-rule="evenodd" clip-rule="evenodd" d="M5.1031 0.195714C8.43867 -0.0652379 11.7895 -0.0652379 15.1251 0.195714L17.3651 0.371714C17.9718 0.419011 18.5452 0.668018 18.9939 1.07905C19.4426 1.49009 19.7409 2.03949 19.8411 2.63971C20.3581 5.72971 20.3581 8.88271 19.8411 11.9717C19.7409 12.5718 19.4428 13.1211 18.9943 13.5321C18.5458 13.9431 17.9726 14.1922 17.3661 14.2397L15.1261 14.4147C11.7902 14.6757 8.439 14.6757 5.1031 14.4147L2.8631 14.2397C2.25641 14.1924 1.68301 13.9434 1.23428 13.5324C0.785549 13.1213 0.487312 12.5719 0.387099 11.9717C-0.129033 8.88246 -0.129033 5.72897 0.387099 2.63971C0.487268 2.03965 0.785359 1.49036 1.23389 1.07934C1.68242 0.668327 2.25559 0.419224 2.8621 0.371714L5.1021 0.196714L5.1031 0.195714ZM8.1141 9.77571V4.83571C8.11418 4.7827 8.12831 4.73065 8.15505 4.68487C8.18178 4.63909 8.22017 4.60121 8.26631 4.5751C8.31245 4.54898 8.36468 4.53556 8.41769 4.53619C8.4707 4.53683 8.5226 4.5515 8.5681 4.57871L12.6851 7.04871C12.7294 7.0754 12.7661 7.11308 12.7915 7.15811C12.817 7.20314 12.8303 7.25399 12.8303 7.30571C12.8303 7.35744 12.817 7.40828 12.7915 7.45331C12.7661 7.49834 12.7294 7.53603 12.6851 7.56271L8.5681 10.0327C8.5226 10.0599 8.4707 10.0746 8.41769 10.0752C8.36468 10.0759 8.31245 10.0624 8.26631 10.0363C8.22017 10.0102 8.18178 9.97234 8.15505 9.92656C8.12831 9.88078 8.11418 9.82873 8.1141 9.77571Z" fill="black"/>
</svg>
